<svg width="17" height="14" viewBox="0 0 17 14" fill="none" xmlns="http://www.w3.org/2000/svg">
<path d="M-6.55465e-06 12.152V2.62625C-6.55465e-06 2.53723 0.00741223 2.45562 0.0222498 2.38143C0.0420332 2.30724 0.0717084 2.23553 0.111275 2.16629C0.348676 1.75578 0.684994 1.38731 1.12023 1.06089C1.56041 0.734461 2.06983 0.477276 2.6485 0.289334C3.23211 0.0964455 3.85529 1.33552e-06 4.51803 1.33552e-06C5.24507 1.33552e-06 5.92266 0.123648 6.55078 0.370941C7.18385 0.613287 7.69574 0.937241 8.08647 1.3428C8.47719 0.937241 8.98661 0.613287 9.61474 0.370941C10.2478 0.123648 10.9254 1.33552e-06 11.6475 1.33552e-06C12.3152 1.33552e-06 12.9384 0.0964455 13.517 0.289334C14.1006 0.477276 14.6101 0.734461 15.0453 1.06089C15.4855 1.38731 15.8218 1.75578 16.0542 2.16629C16.0988 2.23553 16.1284 2.30724 16.1433 2.38143C16.163 2.45562 16.1729 2.53723 16.1729 2.62625V12.152C16.1729 12.513 16.0666 12.7875 15.8539 12.9755C15.6413 13.1634 15.3791 13.2574 15.0675 13.2574C14.9142 13.2574 14.7708 13.2252 14.6373 13.1609C14.5087 13.1016 14.3529 13.0175 14.1699 12.9087C13.7841 12.6614 13.381 12.471 12.9606 12.3374C12.5452 12.2039 12.1198 12.1396 11.6846 12.1445C11.2098 12.1495 10.7523 12.236 10.3121 12.4042C9.87192 12.5773 9.46883 12.8345 9.10284 13.1758C8.92479 13.3439 8.75416 13.4651 8.59094 13.5393C8.42773 13.6135 8.25957 13.6506 8.08647 13.6506C7.91336 13.6506 7.7452 13.6135 7.58199 13.5393C7.41878 13.4651 7.24814 13.3439 7.07009 13.1758C6.7041 12.8345 6.30101 12.5773 5.86083 12.4042C5.42065 12.236 4.96316 12.1495 4.48836 12.1445C4.05807 12.1396 3.63025 12.2039 3.20491 12.3374C2.78451 12.471 2.3839 12.6614 2.00306 12.9087C1.81512 13.0175 1.65438 13.1016 1.52084 13.1609C1.39225 13.2252 1.25377 13.2574 1.10539 13.2574C0.793803 13.2574 0.531673 13.1634 0.319001 12.9755C0.106329 12.7875 -6.55465e-06 12.513 -6.55465e-06 12.152ZM1.71373 11.1282C2.07973 10.9106 2.50507 10.7399 2.98976 10.6163C3.4794 10.4926 3.98883 10.4308 4.51803 10.4308C4.8593 10.4308 5.19067 10.4654 5.51215 10.5347C5.83858 10.599 6.14769 10.6905 6.4395 10.8092C6.7313 10.9229 6.99591 11.0589 7.23331 11.2172V2.91558C7.00085 2.54959 6.6398 2.25778 6.15016 2.04017C5.66053 1.8176 5.11648 1.70632 4.51803 1.70632C3.93937 1.70632 3.39285 1.81513 2.87848 2.03275C2.36906 2.25037 1.98081 2.53475 1.71373 2.88591V11.1282ZM8.93963 11.2172C9.17703 11.0589 9.43916 10.9229 9.72602 10.8092C10.0178 10.6905 10.3269 10.599 10.6534 10.5347C10.9798 10.4654 11.3112 10.4308 11.6475 10.4308C12.1816 10.4308 12.6911 10.4926 13.1758 10.6163C13.6654 10.7399 14.0932 10.9106 14.4592 11.1282V2.88591C14.1921 2.53475 13.8014 2.25037 13.287 2.03275C12.7776 1.81513 12.2311 1.70632 11.6475 1.70632C11.054 1.70632 10.5124 1.8176 10.0228 2.04017C9.53313 2.25778 9.17208 2.54959 8.93963 2.91558V11.2172Z" fill="#FC7D1E"/>
</svg>
