<svg width="166" height="56" viewBox="0 0 166 56" fill="none" xmlns="http://www.w3.org/2000/svg">
<g filter="url(#filter0_d_45_2)">
<rect width="166" height="54" rx="8" fill="#FF994C"/>
<rect x="0.5" y="0.5" width="165" height="53" rx="7.5" stroke="black"/>
</g>
<path d="M27.7516 21.8481C28.5141 21.8481 29.1677 22.0061 29.7124 22.322C30.2625 22.6324 30.6846 23.06 30.9787 23.6046C31.2728 24.1439 31.4199 24.7593 31.4199 25.451C31.4199 26.1428 31.2701 26.7609 30.9705 27.3056C30.6764 27.8448 30.2543 28.2696 29.7042 28.5801C29.1595 28.8906 28.5032 29.0458 27.7352 29.0458H25.3251V33H23.4706V21.8481H27.7516ZM29.5245 25.451C29.5245 24.792 29.3447 24.2827 28.9852 23.9233C28.6258 23.5638 28.122 23.3841 27.4738 23.3841H25.317V27.5262H27.4738C27.9041 27.5262 28.2717 27.4445 28.5767 27.2811C28.8818 27.1177 29.116 26.8835 29.2794 26.5785C29.4428 26.268 29.5245 25.8922 29.5245 25.451ZM36.7384 24.2174C37.4901 24.2174 38.1546 24.3726 38.7319 24.6831C39.3092 24.9935 39.7586 25.4401 40.0799 26.0229C40.4067 26.6057 40.5701 27.3002 40.5701 28.1062V29.2255C40.5701 30.0588 40.4067 30.7696 40.0799 31.3579C39.7586 31.9406 39.3092 32.3845 38.7319 32.6895C38.1546 32.9946 37.4901 33.1471 36.7384 33.1471C35.9759 33.1471 35.306 32.9946 34.7287 32.6895C34.1568 32.3845 33.7074 31.9406 33.3806 31.3579C33.0538 30.7751 32.8904 30.067 32.8904 29.2337V28.1144C32.8904 27.3247 33.0538 26.6384 33.3806 26.0556C33.7074 25.4728 34.1595 25.0208 34.7368 24.6994C35.3196 24.3781 35.9868 24.2174 36.7384 24.2174ZM36.7466 25.6798C36.3109 25.6798 35.9432 25.7914 35.6437 26.0148C35.3441 26.2326 35.1154 26.5322 34.9574 26.9134C34.7995 27.2893 34.7205 27.7195 34.7205 28.2043V29.1683C34.7205 29.6531 34.794 30.0861 34.9411 30.4673C35.0936 30.8432 35.3196 31.14 35.6192 31.3579C35.9242 31.5757 36.3 31.6847 36.7466 31.6847C37.1932 31.6847 37.5636 31.5757 37.8577 31.3579C38.1518 31.14 38.3724 30.8432 38.5195 30.4673C38.672 30.0861 38.7482 29.6531 38.7482 29.1683V28.2043C38.7482 27.7195 38.6693 27.2893 38.5113 26.9134C38.3588 26.5322 38.1328 26.2326 37.8332 26.0148C37.5391 25.7914 37.1769 25.6798 36.7466 25.6798ZM42.5391 26.8808C42.5391 26.249 42.6943 25.7397 43.0047 25.353C43.3206 24.9608 43.7319 24.6749 44.2384 24.4952C44.7504 24.31 45.2977 24.2174 45.8805 24.2174C46.5178 24.2174 47.0733 24.3181 47.5472 24.5197C48.0265 24.7212 48.3996 25.0071 48.6665 25.3775C48.9388 25.7424 49.075 26.1809 49.075 26.6929H47.441C47.4246 26.5022 47.3538 26.3198 47.2286 26.1455C47.1087 25.9712 46.9344 25.8269 46.7057 25.7125C46.4769 25.5981 46.1855 25.5409 45.8315 25.5409C45.3686 25.5409 44.9927 25.6444 44.7041 25.8514C44.4208 26.0583 44.2792 26.347 44.2792 26.7174C44.2792 26.957 44.3473 27.1504 44.4835 27.2974C44.6197 27.4445 44.7939 27.5589 45.0064 27.6406C45.2242 27.7223 45.4611 27.7876 45.7171 27.8366C45.9731 27.8857 46.2209 27.9292 46.4606 27.9674C46.9998 28.06 47.4846 28.1907 47.9148 28.3595C48.3451 28.5284 48.6855 28.7735 48.9361 29.0948C49.1866 29.4161 49.3119 29.8492 49.3119 30.3938C49.3119 30.9766 49.1675 31.475 48.8789 31.8889C48.5902 32.2974 48.1763 32.6106 47.6371 32.8284C47.1033 33.0408 46.4715 33.1471 45.7416 33.1471C45.0608 33.1471 44.4671 33.049 43.9606 32.8529C43.4541 32.6514 43.0619 32.3682 42.7842 32.0033C42.5118 31.6329 42.3757 31.1917 42.3757 30.6798H44.1404C44.173 30.9085 44.252 31.11 44.3773 31.2843C44.5025 31.4586 44.685 31.5921 44.9247 31.6847C45.1643 31.7772 45.4666 31.8235 45.8315 31.8235C46.2346 31.8235 46.5614 31.7691 46.8119 31.6601C47.0679 31.5512 47.2531 31.4042 47.3675 31.219C47.4873 31.0338 47.5472 30.8295 47.5472 30.6062C47.5472 30.3067 47.4491 30.0806 47.2531 29.9281C47.057 29.7702 46.7956 29.6504 46.4688 29.5687C46.142 29.487 45.7852 29.4107 45.3985 29.3399C44.8756 29.231 44.3963 29.0948 43.9606 28.9314C43.5249 28.7626 43.179 28.5202 42.923 28.2043C42.6671 27.8829 42.5391 27.4418 42.5391 26.8808ZM52.0896 24.4216V22.2648H53.8625V24.4216H55.7906V25.8432H53.8625V30.4265C53.8625 30.8949 53.9605 31.2135 54.1566 31.3824C54.3581 31.5458 54.7013 31.6275 55.186 31.6275C55.3113 31.6275 55.442 31.6247 55.5782 31.6193C55.7198 31.6084 55.826 31.6002 55.8968 31.5948V32.9837C55.826 32.9946 55.6653 33.0082 55.4148 33.0245C55.1697 33.0463 54.9436 33.0572 54.7367 33.0572C54.0395 33.0572 53.4949 32.97 53.1027 32.7958C52.716 32.6215 52.4464 32.3519 52.2939 31.9869C52.1414 31.6166 52.0651 31.1454 52.0651 30.5735V25.8432H50.7498V24.4216H52.0896ZM60.4147 33.1307C59.5814 33.1307 58.9006 32.8938 58.3723 32.4199C57.8494 31.9406 57.588 31.2979 57.588 30.4918C57.588 29.7293 57.8467 29.1139 58.3641 28.6455C58.887 28.1716 59.6468 27.9347 60.6435 27.9347H62.8248V27.1259C62.8248 26.6302 62.6778 26.2653 62.3837 26.0311C62.0896 25.7914 61.6947 25.6716 61.199 25.6716C60.8722 25.6716 60.6026 25.7152 60.3902 25.8023C60.1778 25.884 60.0117 25.9984 59.8919 26.1455C59.772 26.2871 59.6876 26.4559 59.6386 26.652H57.9148C57.942 26.2925 58.0291 25.9657 58.1762 25.6716C58.3287 25.3721 58.5411 25.1161 58.8134 24.9037C59.0912 24.6858 59.4316 24.5197 59.8347 24.4053C60.2432 24.2909 60.717 24.2337 61.2562 24.2337C61.8717 24.2337 62.4354 24.329 62.9474 24.5197C63.4594 24.7049 63.8679 25.0099 64.1729 25.4347C64.4779 25.8595 64.6304 26.4314 64.6304 27.1504V33H62.9065V31.8807H62.8248C62.6996 32.0986 62.5307 32.3028 62.3183 32.4935C62.1059 32.6841 61.8417 32.8393 61.5258 32.9592C61.2154 33.0735 60.845 33.1307 60.4147 33.1307ZM60.9703 31.7255C61.3189 31.7255 61.632 31.6547 61.9098 31.5131C62.1876 31.366 62.4082 31.1699 62.5716 30.9249C62.7404 30.6798 62.8248 30.3993 62.8248 30.0834V29.152H60.9294C60.4011 29.152 60.0144 29.2691 59.7693 29.5033C59.5297 29.7375 59.4098 30.0371 59.4098 30.402C59.4098 30.854 59.5678 31.189 59.8837 31.4069C60.205 31.6193 60.5672 31.7255 60.9703 31.7255ZM67.4327 33V24.3644H69.2382V25.7125H69.3362C69.4016 25.5164 69.5187 25.3067 69.6875 25.0834C69.8618 24.8546 70.1042 24.6586 70.4147 24.4952C70.7251 24.3263 71.12 24.2419 71.5993 24.2419C71.7191 24.2419 71.828 24.2473 71.9261 24.2582C72.0296 24.2637 72.1249 24.2746 72.212 24.2909V25.8922C72.1303 25.8704 72.0187 25.8541 71.8771 25.8432C71.7355 25.8323 71.5884 25.8269 71.4359 25.8269C70.9511 25.8269 70.5481 25.9167 70.2268 26.0965C69.9054 26.2707 69.6658 26.5131 69.5078 26.8236C69.3499 27.1286 69.2709 27.4744 69.2709 27.8612V33H67.4327ZM77.8411 33V24.3644H79.6221V25.9167H79.712C79.7882 25.688 79.9162 25.4429 80.096 25.1814C80.2811 24.92 80.5507 24.6967 80.9048 24.5115C81.2588 24.3263 81.7272 24.2337 82.31 24.2337C83.176 24.2337 83.8759 24.4761 84.4096 24.9608C84.9489 25.4456 85.2185 26.1809 85.2185 27.1667V33H83.4048V27.6978C83.4048 27.2566 83.3312 26.8971 83.1842 26.6193C83.0426 26.3361 82.8438 26.1264 82.5878 25.9903C82.3318 25.8486 82.0322 25.7778 81.6891 25.7778C81.2479 25.7778 80.8748 25.884 80.5698 26.0965C80.2702 26.3034 80.0415 26.5894 79.8835 26.9543C79.731 27.3192 79.6548 27.7359 79.6548 28.2043V33H77.8411ZM91.3459 24.2174C92.0975 24.2174 92.762 24.3726 93.3393 24.6831C93.9167 24.9935 94.366 25.4401 94.6873 26.0229C95.0141 26.6057 95.1775 27.3002 95.1775 28.1062V29.2255C95.1775 30.0588 95.0141 30.7696 94.6873 31.3579C94.366 31.9406 93.9167 32.3845 93.3393 32.6895C92.762 32.9946 92.0975 33.1471 91.3459 33.1471C90.5833 33.1471 89.9134 32.9946 89.3361 32.6895C88.7642 32.3845 88.3148 31.9406 87.9881 31.3579C87.6613 30.7751 87.4979 30.067 87.4979 29.2337V28.1144C87.4979 27.3247 87.6613 26.6384 87.9881 26.0556C88.3148 25.4728 88.7669 25.0208 89.3443 24.6994C89.927 24.3781 90.5942 24.2174 91.3459 24.2174ZM91.354 25.6798C90.9183 25.6798 90.5507 25.7914 90.2511 26.0148C89.9515 26.2326 89.7228 26.5322 89.5648 26.9134C89.4069 27.2893 89.3279 27.7195 89.3279 28.2043V29.1683C89.3279 29.6531 89.4014 30.0861 89.5485 30.4673C89.701 30.8432 89.927 31.14 90.2266 31.3579C90.5316 31.5757 90.9074 31.6847 91.354 31.6847C91.8007 31.6847 92.171 31.5757 92.4651 31.3579C92.7593 31.14 92.9798 30.8432 93.1269 30.4673C93.2794 30.0861 93.3557 29.6531 93.3557 29.1683V28.2043C93.3557 27.7195 93.2767 27.2893 93.1187 26.9134C92.9662 26.5322 92.7402 26.2326 92.4406 26.0148C92.1465 25.7914 91.7843 25.6798 91.354 25.6798ZM100.905 26.8808C100.905 26.249 101.06 25.7397 101.37 25.353C101.686 24.9608 102.097 24.6749 102.604 24.4952C103.116 24.31 103.663 24.2174 104.246 24.2174C104.883 24.2174 105.439 24.3181 105.913 24.5197C106.392 24.7212 106.765 25.0071 107.032 25.3775C107.304 25.7424 107.441 26.1809 107.441 26.6929H105.807C105.79 26.5022 105.719 26.3198 105.594 26.1455C105.474 25.9712 105.3 25.8269 105.071 25.7125C104.843 25.5981 104.551 25.5409 104.197 25.5409C103.734 25.5409 103.358 25.6444 103.07 25.8514C102.786 26.0583 102.645 26.347 102.645 26.7174C102.645 26.957 102.713 27.1504 102.849 27.2974C102.985 27.4445 103.16 27.5589 103.372 27.6406C103.59 27.7223 103.827 27.7876 104.083 27.8366C104.339 27.8857 104.587 27.9292 104.826 27.9674C105.365 28.06 105.85 28.1907 106.28 28.3595C106.711 28.5284 107.051 28.7735 107.302 29.0948C107.552 29.4161 107.677 29.8492 107.677 30.3938C107.677 30.9766 107.533 31.475 107.244 31.8889C106.956 32.2974 106.542 32.6106 106.003 32.8284C105.469 33.0408 104.837 33.1471 104.107 33.1471C103.426 33.1471 102.833 33.049 102.326 32.8529C101.82 32.6514 101.427 32.3682 101.15 32.0033C100.877 31.6329 100.741 31.1917 100.741 30.6798H102.506C102.539 30.9085 102.618 31.11 102.743 31.2843C102.868 31.4586 103.051 31.5921 103.29 31.6847C103.53 31.7772 103.832 31.8235 104.197 31.8235C104.6 31.8235 104.927 31.7691 105.177 31.6601C105.433 31.5512 105.619 31.4042 105.733 31.219C105.853 31.0338 105.913 30.8295 105.913 30.6062C105.913 30.3067 105.815 30.0806 105.619 29.9281C105.423 29.7702 105.161 29.6504 104.834 29.5687C104.508 29.487 104.151 29.4107 103.764 29.3399C103.241 29.231 102.762 29.0948 102.326 28.9314C101.89 28.7626 101.545 28.5202 101.289 28.2043C101.033 27.8829 100.905 27.4418 100.905 26.8808ZM110.455 24.4216V22.2648H112.228V24.4216H114.156V25.8432H112.228V30.4265C112.228 30.8949 112.326 31.2135 112.522 31.3824C112.724 31.5458 113.067 31.6275 113.552 31.6275C113.677 31.6275 113.808 31.6247 113.944 31.6193C114.085 31.6084 114.192 31.6002 114.262 31.5948V32.9837C114.192 32.9946 114.031 33.0082 113.78 33.0245C113.535 33.0463 113.309 33.0572 113.102 33.0572C112.405 33.0572 111.86 32.97 111.468 32.7958C111.082 32.6215 110.812 32.3519 110.659 31.9869C110.507 31.6166 110.431 31.1454 110.431 30.5735V25.8432H109.115V24.4216H110.455ZM119.859 24.2174C120.61 24.2174 121.275 24.3726 121.852 24.6831C122.43 24.9935 122.879 25.4401 123.2 26.0229C123.527 26.6057 123.69 27.3002 123.69 28.1062V29.2255C123.69 30.0588 123.527 30.7696 123.2 31.3579C122.879 31.9406 122.43 32.3845 121.852 32.6895C121.275 32.9946 120.61 33.1471 119.859 33.1471C119.096 33.1471 118.426 32.9946 117.849 32.6895C117.277 32.3845 116.828 31.9406 116.501 31.3579C116.174 30.7751 116.011 30.067 116.011 29.2337V28.1144C116.011 27.3247 116.174 26.6384 116.501 26.0556C116.828 25.4728 117.28 25.0208 117.857 24.6994C118.44 24.3781 119.107 24.2174 119.859 24.2174ZM119.867 25.6798C119.431 25.6798 119.064 25.7914 118.764 26.0148C118.464 26.2326 118.236 26.5322 118.078 26.9134C117.92 27.2893 117.841 27.7195 117.841 28.2043V29.1683C117.841 29.6531 117.914 30.0861 118.061 30.4673C118.214 30.8432 118.44 31.14 118.739 31.3579C119.044 31.5757 119.42 31.6847 119.867 31.6847C120.314 31.6847 120.684 31.5757 120.978 31.3579C121.272 31.14 121.493 30.8432 121.64 30.4673C121.792 30.0861 121.869 29.6531 121.869 29.1683V28.2043C121.869 27.7195 121.79 27.2893 121.632 26.9134C121.479 26.5322 121.253 26.2326 120.953 26.0148C120.659 25.7914 120.297 25.6798 119.867 25.6798ZM126.141 33V24.3644H127.947V25.7125H128.045C128.11 25.5164 128.227 25.3067 128.396 25.0834C128.571 24.8546 128.813 24.6586 129.123 24.4952C129.434 24.3263 129.829 24.2419 130.308 24.2419C130.428 24.2419 130.537 24.2473 130.635 24.2582C130.738 24.2637 130.834 24.2746 130.921 24.2909V25.8922C130.839 25.8704 130.727 25.8541 130.586 25.8432C130.444 25.8323 130.297 25.8269 130.145 25.8269C129.66 25.8269 129.257 25.9167 128.935 26.0965C128.614 26.2707 128.374 26.5131 128.216 26.8236C128.059 27.1286 127.98 27.4744 127.98 27.8612V33H126.141ZM140.243 24.3644C139.965 25.1978 139.69 26.0093 139.417 26.7991C139.151 27.5834 138.892 28.3377 138.641 29.0621C138.391 29.7865 138.151 30.4701 137.922 31.1128C137.699 31.7555 137.492 32.3464 137.301 32.8856L137.113 33.3758C136.759 34.329 136.321 35.0098 135.798 35.4183C135.281 35.8268 134.603 36.031 133.764 36.031C133.606 36.031 133.429 36.0229 133.233 36.0065C133.042 35.9902 132.89 35.9711 132.775 35.9493V34.5686C132.841 34.5795 132.941 34.5904 133.078 34.6013C133.214 34.6122 133.334 34.6176 133.437 34.6176C133.922 34.6176 134.295 34.5169 134.556 34.3153C134.818 34.1193 135 33.7952 135.104 33.3431L135.177 33.0654L132.097 24.3644H134.107L136.166 31.3497H136.239L138.323 24.3644H140.243Z" fill="black"/>
<defs>
<filter id="filter0_d_45_2" x="0" y="0" width="166" height="56" filterUnits="userSpaceOnUse" color-interpolation-filters="sRGB">
<feFlood flood-opacity="0" result="BackgroundImageFix"/>
<feColorMatrix in="SourceAlpha" type="matrix" values="0 0 0 0 0 0 0 0 0 0 0 0 0 0 0 0 0 0 127 0" result="hardAlpha"/>
<feOffset dy="2"/>
<feComposite in2="hardAlpha" operator="out"/>
<feColorMatrix type="matrix" values="0 0 0 0 0 0 0 0 0 0 0 0 0 0 0 0 0 0 0.7 0"/>
<feBlend mode="normal" in2="BackgroundImageFix" result="effect1_dropShadow_45_2"/>
<feBlend mode="normal" in="SourceGraphic" in2="effect1_dropShadow_45_2" result="shape"/>
</filter>
</defs>
</svg>
