<?xml version="1.0" encoding="UTF-8"?>
<svg id="Layer_2" data-name="Layer 2" xmlns="http://www.w3.org/2000/svg" viewBox="0 0 1488.89 644.05">
  <defs>
    <style>
      .cls-1 {
        fill: #fff;
      }
    </style>
  </defs>
  <g id="Layer_2-2" data-name="Layer 2">
    <g id="Layer_1-2" data-name="Layer 1-2">
      <g>
        <path class="cls-1" d="M1453.34,48.98c30.6,29.52,30.25,83.15,19.62,121.43-14.73,53.05-58.43,102.24-99.22,137.73-11.9,10.35-25.01,18.56-37.01,28.97-17.85,15.49-64.41,58.14-64.03,82.01.27,16.93,17.46,26.86,32.68,28.38,28.71,2.87,73.3-10.39,99.83-21.88,15.27-6.61,37.46-21.74,54.01-20.5,9.71.73,14.62,9.4,18.17,17.29,21.49,47.82,13.5,134.22-29.22,169.19-38.64,31.63-139.42,45.84-188.84,48.06-67.97,3.05-175.82-4.23-224.94-58.03-98.37-107.72,71.14-227.76,135.96-300,17.57-19.58,53.83-61.27,51.5-88.56-3.51-41.13-75.92-20.04-99.23-11.2-17.73,6.72-33.65,16.93-50.71,24.75-8.28-32.37-19.04-64.17-34.82-93.68-3.42-6.39-11.89-15.7-11.11-22.72,1.55-13.9,13.76-33.68,24.45-42.58,26.79-22.29,92.34-33.92,126.99-38.94,75.87-10.99,216.59-16.97,275.93,40.27h-.01ZM1366.73,490.63c-.05,6.65.04,13.35,0,20.01.97.97,22.99-1.32,27,.5.64.29.7,1.16.99,1.49l-.02,53.52c.11,1.73.64,3.94,2.03,5,.5.38.93-.53.99-.52,3.24.89,18.99,2.62,18.99-1.5v-53c0-.26,1.59-3.66,1.95-4.05,3.4-3.84,22.34.53,28.02-1.97,5.07-2.24,3.64-19.6.31-20.49-5.99-1.6-23.05,2.12-27.69-1.07-6.05-4.16.61-25.16-4.05-29.95-1.68-1.73-13.13-.99-16.52-.97-.06,0-.34-1.07-.98-.59-.4.3-3.02,4.79-3.02,5.09v24c0,5.3-25.7.31-28.54,3.5-.72.81.56.89.56,1h-.02Z"/>
        <path class="cls-1" d="M207.11,1.92c75.16-2.26,216.24.2,267.49,63.79,24.73,30.69,31.33,80.44-10.72,99.1-30.89,13.71-77.51,12.05-108.89.57-49.63-18.15-90.59-86.08-148.9-72.48-48.91,11.41-25,65.76-2.8,91.25,41.5,47.65,90.67,45.76,149.44,42.46,26.63-1.49,62.87-10.87,84.49,9.49,19.13,18.02,19.79,64.59-8.84,74.2-21.6,7.25-56.89-4.36-80.6-5.72-73.14-4.2-52.16,68.39-33.24,111.25,20.73,46.96,87.63,134.88,36.17,179.77-53.77,46.9-183.92,55.92-251.08,43.25-60.43-11.4-104.4-33.04-99.21-102.72,2.42-32.53,23.35-66.15,35.97-96.01,41.18-97.44,35.05-168.18-.23-265.77-15.77-43.62-47.63-99.8,1.73-135.74C79.13,8.58,157.23,3.41,207.1,1.91h0Z"/>
        <path class="cls-1" d="M729.84,1.92c38.37-2.36,91.37-2.63,129.69-.34,116.49,6.95,184.48,112.85,205.1,217.8,8.08,41.11,12.58,104.72,5.14,145.63-1.8,9.89-10.36,15.32-16.39,22.6-37.96,45.81-68.41,87.11-55.18,150.24,2.48,11.86,6.37,8.63-2.29,20.25-20.51,27.52-53.85,53.2-85.42,66.54-49.19,20.78-107.2,17.84-159.98,15.94-29.86-1.07-56.63-2.12-84.42-15.46-71.47-34.29-34.5-88.93-20.45-145.46,26.92-108.3,24.26-214.79.21-323.29-.92-4.13-3.68-9.05-3.78-13.29-.32-13.6,9.25-40.17,12.54-54.45,4.98-21.65,6.48-41.66-7.27-60.52.16-2.14,9.77-7.42,12.09-8.65,19.76-10.48,48.12-16.18,70.42-17.55h0ZM857.79,146.91c-15.28,1.04-23.27,14.02-24.8,28.21-3.57,33.15,3.07,74.21,4.05,107.97,1.25,43.23-2.54,83.52-4.08,126-.41,11.24-1.73,57.45.99,65.09,9.39,26.42,42.84,21.27,59.56,5.49,46.5-43.91,50.04-156.37,42.31-215.42-4.99-38.16-28.23-120.73-78.03-117.34h0Z"/>
        <path class="cls-1" d="M528.95,1.92c35.06-3.82,114.31,6.9,119.15,52.2,2.43,22.71-8.92,51.75-13.12,74.89-14.91,82.16-9.64,178.33.1,261.14,1.66,14.09,4.12,28.05,5.9,42.1,2.56,20.23-4.01,41.79-9.35,61.41-6.66,24.44-22.58,58.54-18.24,83.2,3.11,17.68,11.98,30.13,24.7,42.27-20.76,15.33-50.78,23-76.4,24.54-39.39,2.36-115.47-13.98-127.79-58.23-7.56-27.12,6.79-55.81,13.83-81.8,23.62-87.24,31.57-178.46,20.35-268.39-2.39-19.13-6.24-38-9.79-57,10.11-5.36,20.62-8.79,28.9-17.13,33.7-33.92,12.62-87.23-17.97-115.01-2.6-2.36-17.06-12.31-17.06-13.97-.01-2.53,6.4-6.14,8.54-7.53,18.59-12.01,46.45-20.32,68.27-22.69h-.02Z"/>
        <path class="cls-1" d="M1397.72,570.63c-.05-.01-.49.9-.99.52-1.39-1.07-1.92-3.27-2.03-5l.02-53.52c1.55,1.74,1.76,2,2.03,4.47,1.82,16.96-2.23,36.55.97,53.53Z"/>
        <path class="cls-1" d="M1398.72,457.63c-5.03,6.15,1.28,27.03-4.42,31.07-4.41,3.13-21.64-1.16-27.56,1.93,0-.1-1.28-.18-.56-1,2.85-3.2,28.54,1.8,28.54-3.5v-24c0-.3,2.62-4.78,3.02-5.09.64-.48.92.59.98.59h0Z"/>
      </g>
    </g>
  </g>
</svg>