<svg width="1489" height="645" viewBox="0 0 1489 645" fill="none" xmlns="http://www.w3.org/2000/svg">
<path d="M1453.34 48.98C1483.94 78.5 1483.59 132.13 1472.96 170.41C1458.23 223.46 1414.53 272.65 1373.74 308.14C1361.84 318.49 1348.73 326.7 1336.73 337.11C1318.88 352.6 1272.32 395.25 1272.7 419.12C1272.97 436.05 1290.16 445.98 1305.38 447.5C1334.09 450.37 1378.68 437.11 1405.21 425.62C1420.48 419.01 1442.67 403.88 1459.22 405.12C1468.93 405.85 1473.84 414.52 1477.39 422.41C1498.88 470.23 1490.89 556.63 1448.17 591.6C1409.53 623.23 1308.75 637.44 1259.33 639.66C1191.36 642.71 1083.51 635.43 1034.39 581.63C936.017 473.91 1105.53 353.87 1170.35 281.63C1187.92 262.05 1224.18 220.36 1221.85 193.07C1218.34 151.94 1145.93 173.03 1122.62 181.87C1104.89 188.59 1088.97 198.8 1071.91 206.62C1063.63 174.25 1052.87 142.45 1037.09 112.94C1033.67 106.55 1025.2 97.24 1025.98 90.22C1027.53 76.32 1039.74 56.54 1050.43 47.64C1077.22 25.35 1142.77 13.72 1177.42 8.69999C1253.29 -2.29001 1394.01 -8.27001 1453.35 48.97H1453.34V48.98ZM1366.73 490.63C1366.68 497.28 1366.77 503.98 1366.73 510.64C1367.7 511.61 1389.72 509.32 1393.73 511.14C1394.37 511.43 1394.43 512.3 1394.72 512.63L1394.7 566.15C1394.81 567.88 1395.34 570.09 1396.73 571.15C1397.23 571.53 1397.66 570.62 1397.72 570.63C1400.96 571.52 1416.71 573.25 1416.71 569.13V516.13C1416.71 515.87 1418.3 512.47 1418.66 512.08C1422.06 508.24 1441 512.61 1446.68 510.11C1451.75 507.87 1450.32 490.51 1446.99 489.62C1441 488.02 1423.94 491.74 1419.3 488.55C1413.25 484.39 1419.91 463.39 1415.25 458.6C1413.57 456.87 1402.12 457.61 1398.73 457.63C1398.67 457.63 1398.39 456.56 1397.75 457.04C1397.35 457.34 1394.73 461.83 1394.73 462.13V486.13C1394.73 491.43 1369.03 486.44 1366.19 489.63C1365.47 490.44 1366.75 490.52 1366.75 490.63H1366.73Z" fill="white"/>
<path d="M207.106 1.92004C282.266 -0.339956 423.346 2.12004 474.596 65.71C499.326 96.4 505.926 146.15 463.876 164.81C432.986 178.52 386.366 176.86 354.986 165.38C305.356 147.23 264.396 79.3 206.086 92.9C157.176 104.31 181.086 158.66 203.286 184.15C244.786 231.8 293.956 229.91 352.726 226.61C379.356 225.12 415.596 215.74 437.216 236.1C456.346 254.12 457.006 300.69 428.376 310.3C406.776 317.55 371.486 305.94 347.776 304.58C274.636 300.38 295.616 372.97 314.536 415.83C335.266 462.79 402.166 550.71 350.706 595.6C296.936 642.5 166.786 651.52 99.6259 638.85C39.1959 627.45 -4.77411 605.81 0.415886 536.13C2.83589 503.6 23.7659 469.98 36.3859 440.12C77.5659 342.68 71.4359 271.94 36.1559 174.35C20.3859 130.73 -11.4741 74.55 37.8859 38.61C79.1259 8.58004 157.226 3.41004 207.096 1.91004L207.106 1.92004Z" fill="white"/>
<path d="M729.837 1.92001C768.207 -0.439985 821.207 -0.709985 859.527 1.58001C976.017 8.53001 1044.01 114.43 1064.63 219.38C1072.71 260.49 1077.21 324.1 1069.77 365.01C1067.97 374.9 1059.41 380.33 1053.38 387.61C1015.42 433.42 984.967 474.72 998.197 537.85C1000.68 549.71 1004.57 546.48 995.907 558.1C975.397 585.62 942.057 611.3 910.487 624.64C861.297 645.42 803.287 642.48 750.507 640.58C720.647 639.51 693.877 638.46 666.087 625.12C594.617 590.83 631.587 536.19 645.637 479.66C672.557 371.36 669.897 264.87 645.847 156.37C644.927 152.24 642.167 147.32 642.067 143.08C641.747 129.48 651.317 102.91 654.607 88.63C659.587 66.98 661.087 46.97 647.337 28.11C647.497 25.97 657.107 20.69 659.427 19.46C679.187 8.98001 707.547 3.28001 729.847 1.91001L729.837 1.92001ZM857.787 146.91C842.507 147.95 834.517 160.93 832.987 175.12C829.417 208.27 836.057 249.33 837.037 283.09C838.287 326.32 834.497 366.61 832.957 409.09C832.547 420.33 831.227 466.54 833.947 474.18C843.337 500.6 876.787 495.45 893.507 479.67C940.007 435.76 943.547 323.3 935.817 264.25C930.827 226.09 907.587 143.52 857.787 146.91Z" fill="white"/>
<path d="M528.946 1.92004C564.006 -1.89996 643.256 8.82004 648.096 54.12C650.526 76.83 639.176 105.87 634.976 129.01C620.066 211.17 625.336 307.34 635.076 390.15C636.736 404.24 639.196 418.2 640.976 432.25C643.536 452.48 636.966 474.04 631.626 493.66C624.966 518.1 609.046 552.2 613.386 576.86C616.496 594.54 625.367 606.99 638.087 619.13C617.327 634.46 587.306 642.13 561.686 643.67C522.296 646.03 446.216 629.69 433.896 585.44C426.336 558.32 440.686 529.63 447.726 503.64C471.346 416.4 479.296 325.18 468.076 235.25C465.686 216.12 461.836 197.25 458.286 178.25C468.396 172.89 478.906 169.46 487.186 161.12C520.886 127.2 499.806 73.89 469.216 46.11C466.616 43.75 452.156 33.8 452.156 32.14C452.146 29.61 458.556 26 460.696 24.61C479.286 12.6 507.146 4.29004 528.966 1.92004H528.946Z" fill="white"/>
<path d="M1397.72 570.63C1397.67 570.62 1397.23 571.53 1396.73 571.15C1395.34 570.08 1394.81 567.88 1394.7 566.15L1394.72 512.63C1396.27 514.37 1396.48 514.63 1396.75 517.1C1398.57 534.06 1394.52 553.65 1397.72 570.63Z" fill="white"/>
<path d="M1398.72 457.63C1393.69 463.78 1400 484.66 1394.3 488.7C1389.89 491.83 1372.66 487.54 1366.74 490.63C1366.74 490.53 1365.46 490.45 1366.18 489.63C1369.03 486.43 1394.72 491.43 1394.72 486.13V462.13C1394.72 461.83 1397.34 457.35 1397.74 457.04C1398.38 456.56 1398.66 457.63 1398.72 457.63Z" fill="white"/>
</svg>
