<svg width="2002" height="2183" viewBox="0 0 2002 2183" fill="none" xmlns="http://www.w3.org/2000/svg">
<g clip-path="url(#clip0_57_137)">
<g filter="url(#filter0_f_57_137)">
<path d="M1912.85 618.039C1874.64 713.142 1399.38 705.383 1357.06 688.385C1314.75 671.386 1443.43 587.411 1481.64 492.309C1519.84 397.206 1453.1 326.99 1495.41 343.989C1537.73 360.988 1951.05 522.937 1912.85 618.039Z" fill="#FC7D1E"/>
</g>
<g filter="url(#filter1_f_57_137)">
<path d="M1912.42 1826.95C1874.21 1922.05 1480.82 1896.5 1438.5 1879.5C1396.19 1862.51 1443 1796.32 1481.21 1701.22C1519.41 1606.12 1452.67 1535.9 1494.98 1552.9C1537.3 1569.9 1950.62 1731.85 1912.42 1826.95Z" fill="#FC7D1E"/>
</g>
<g filter="url(#filter2_f_57_137)">
<path d="M1287.5 1942C1249.3 2037.1 611.866 2013.84 569.55 1996.84C527.235 1979.85 246.357 1684.32 284.561 1589.22C322.765 1494.12 256.021 1423.9 298.337 1440.9C340.652 1457.9 1325.71 1846.9 1287.5 1942Z" fill="#FC7D1E"/>
<path d="M1287.5 1942C1249.3 2037.1 611.866 2013.84 569.55 1996.84C527.235 1979.85 246.357 1684.32 284.561 1589.22C322.765 1494.12 256.021 1423.9 298.337 1440.9C340.652 1457.9 1325.71 1846.9 1287.5 1942Z" fill="#FC7D1E"/>
</g>
<g filter="url(#filter3_f_57_137)">
<path d="M1731.5 2211.65C1693.3 2306.75 1055.87 2283.49 1013.55 2266.49C971.236 2249.5 690.358 1953.97 728.562 1858.87C766.766 1763.77 700.022 1693.55 742.338 1710.55C784.653 1727.55 1769.71 2116.55 1731.5 2211.65Z" fill="#FC7D1E"/>
<path d="M1519 2240C1480.8 2335.1 843.366 2311.84 801.05 2294.84C758.735 2277.85 477.857 1982.32 516.061 1887.22C554.265 1792.12 487.521 1721.9 529.837 1738.9C572.152 1755.9 1557.21 2144.9 1519 2240Z" fill="#FC7D1E"/>
</g>
<g filter="url(#filter4_f_57_137)">
<path d="M722.203 1186.04C683.999 1281.14 208.735 1273.38 166.42 1256.38C124.104 1239.39 252.789 1155.41 290.993 1060.31C329.197 965.206 262.453 894.99 304.769 911.989C347.084 928.988 760.407 1090.94 722.203 1186.04Z" fill="#FC7D1E"/>
</g>
<g filter="url(#filter5_f_57_137)">
<path d="M1205.9 1278.95C1169.32 1313.04 1079.34 1275.93 1004.93 1196.07C930.509 1116.2 863.357 835.436 899.935 801.351C936.514 767.267 1062.97 992.775 1137.39 1072.64C1211.8 1152.5 1242.48 1244.87 1205.9 1278.95Z" fill="#FC7D1E"/>
</g>
<g filter="url(#filter6_f_57_137)">
<path d="M1506.99 1913C1463.9 1953.15 1283.38 1879.78 1204.28 1794.9C1125.19 1710.02 512.605 1470.69 555.698 1430.53C598.79 1390.38 1427.9 1581.53 1506.99 1666.41C1586.09 1751.29 1550.08 1872.84 1506.99 1913Z" fill="#FC7D1E"/>
</g>
<g filter="url(#filter7_f_57_137)">
<path d="M920.899 581.084C884.32 615.169 794.341 578.059 719.925 498.197C645.509 418.335 578.356 137.565 614.935 103.481C651.514 69.3966 777.972 294.904 852.388 374.766C926.804 454.629 957.478 547 920.899 581.084Z" fill="#FC7D1E"/>
</g>
<g filter="url(#filter8_f_57_137)">
<path d="M1493.26 846.46C1520.66 861.467 1272.97 922.41 1230.76 999.46C1188.56 1076.51 1058.14 1252.16 1030.74 1237.15C1003.34 1222.15 1080.93 1017.01 1123.13 939.96C1165.33 862.911 1465.87 831.452 1493.26 846.46Z" fill="#FC7D1E"/>
</g>
<g filter="url(#filter9_f_57_137)">
<path d="M1422.83 1350.37C1450.23 1365.38 1202.54 1426.32 1160.33 1503.37C1118.13 1580.42 987.708 1756.07 960.309 1741.06C932.91 1726.06 812.131 1452.05 854.333 1375C896.535 1297.95 1395.44 1335.36 1422.83 1350.37Z" fill="#FC7D1E"/>
</g>
<g filter="url(#filter10_f_57_137)">
<path d="M1530.71 402.794C1447.9 479.957 1320.38 436.565 1288.91 402.794C1257.45 369.022 1376.6 409.957 1459.41 332.794C1542.23 255.63 1623.11 190.171 1654.57 223.942C1686.04 257.713 1613.52 325.63 1530.71 402.794Z" fill="#FC7D1E"/>
</g>
<g filter="url(#filter11_f_57_137)">
<path d="M1530.28 1611.7C1447.47 1688.87 1319.95 1645.48 1288.48 1611.7C1257.02 1577.93 1376.17 1618.87 1458.98 1541.7C1541.79 1464.54 1622.68 1399.08 1654.14 1432.85C1685.61 1466.62 1613.09 1534.54 1530.28 1611.7Z" fill="#FC7D1E"/>
</g>
<g filter="url(#filter12_f_57_137)">
<path d="M503.712 947.794C420.902 1024.96 293.382 981.565 261.914 947.794C230.445 914.022 349.603 954.957 432.414 877.794C515.224 800.63 596.105 735.171 627.574 768.942C659.042 802.713 586.523 870.63 503.712 947.794Z" fill="#FC7D1E"/>
</g>
<g filter="url(#filter13_f_57_137)">
<path d="M1008.71 484.794C925.903 561.957 798.383 518.565 766.915 484.794C735.446 451.022 854.604 491.957 937.415 414.794C1020.23 337.63 1101.11 272.171 1132.57 305.942C1164.04 339.713 1091.52 407.63 1008.71 484.794Z" fill="#FC7D1E"/>
</g>
</g>
<defs>
<filter id="filter0_f_57_137" x="1262.68" y="255.497" width="738.608" height="529.289" filterUnits="userSpaceOnUse" color-interpolation-filters="sRGB">
<feFlood flood-opacity="0" result="BackgroundImageFix"/>
<feBlend mode="normal" in="SourceGraphic" in2="BackgroundImageFix" result="shape"/>
<feGaussianBlur stdDeviation="42.9733" result="effect1_foregroundBlur_57_137"/>
</filter>
<filter id="filter1_f_57_137" x="1335.83" y="1464.41" width="665.028" height="517.443" filterUnits="userSpaceOnUse" color-interpolation-filters="sRGB">
<feFlood flood-opacity="0" result="BackgroundImageFix"/>
<feBlend mode="normal" in="SourceGraphic" in2="BackgroundImageFix" result="shape"/>
<feGaussianBlur stdDeviation="42.9733" result="effect1_foregroundBlur_57_137"/>
</filter>
<filter id="filter2_f_57_137" x="195.054" y="1352.41" width="1179.48" height="745.88" filterUnits="userSpaceOnUse" color-interpolation-filters="sRGB">
<feFlood flood-opacity="0" result="BackgroundImageFix"/>
<feBlend mode="normal" in="SourceGraphic" in2="BackgroundImageFix" result="shape"/>
<feGaussianBlur stdDeviation="42.9733" result="effect1_foregroundBlur_57_137"/>
</filter>
<filter id="filter3_f_57_137" x="426.554" y="1622.05" width="1391.98" height="774.235" filterUnits="userSpaceOnUse" color-interpolation-filters="sRGB">
<feFlood flood-opacity="0" result="BackgroundImageFix"/>
<feBlend mode="normal" in="SourceGraphic" in2="BackgroundImageFix" result="shape"/>
<feGaussianBlur stdDeviation="42.9733" result="effect1_foregroundBlur_57_137"/>
</filter>
<filter id="filter4_f_57_137" x="72.0369" y="823.497" width="738.603" height="529.286" filterUnits="userSpaceOnUse" color-interpolation-filters="sRGB">
<feFlood flood-opacity="0" result="BackgroundImageFix"/>
<feBlend mode="normal" in="SourceGraphic" in2="BackgroundImageFix" result="shape"/>
<feGaussianBlur stdDeviation="42.9733" result="effect1_foregroundBlur_57_137"/>
</filter>
<filter id="filter5_f_57_137" x="789.654" y="697.87" width="531.677" height="693.743" filterUnits="userSpaceOnUse" color-interpolation-filters="sRGB">
<feFlood flood-opacity="0" result="BackgroundImageFix"/>
<feBlend mode="normal" in="SourceGraphic" in2="BackgroundImageFix" result="shape"/>
<feGaussianBlur stdDeviation="50" result="effect1_foregroundBlur_57_137"/>
</filter>
<filter id="filter6_f_57_137" x="453.53" y="1325.06" width="1200.24" height="699.237" filterUnits="userSpaceOnUse" color-interpolation-filters="sRGB">
<feFlood flood-opacity="0" result="BackgroundImageFix"/>
<feBlend mode="normal" in="SourceGraphic" in2="BackgroundImageFix" result="shape"/>
<feGaussianBlur stdDeviation="50" result="effect1_foregroundBlur_57_137"/>
</filter>
<filter id="filter7_f_57_137" x="504.654" y="0" width="531.677" height="693.744" filterUnits="userSpaceOnUse" color-interpolation-filters="sRGB">
<feFlood flood-opacity="0" result="BackgroundImageFix"/>
<feBlend mode="normal" in="SourceGraphic" in2="BackgroundImageFix" result="shape"/>
<feGaussianBlur stdDeviation="50" result="effect1_foregroundBlur_57_137"/>
</filter>
<filter id="filter8_f_57_137" x="925.015" y="742.821" width="670.355" height="595.234" filterUnits="userSpaceOnUse" color-interpolation-filters="sRGB">
<feFlood flood-opacity="0" result="BackgroundImageFix"/>
<feBlend mode="normal" in="SourceGraphic" in2="BackgroundImageFix" result="shape"/>
<feGaussianBlur stdDeviation="50" result="effect1_foregroundBlur_57_137"/>
</filter>
<filter id="filter9_f_57_137" x="745.473" y="1228" width="779.467" height="613.963" filterUnits="userSpaceOnUse" color-interpolation-filters="sRGB">
<feFlood flood-opacity="0" result="BackgroundImageFix"/>
<feBlend mode="normal" in="SourceGraphic" in2="BackgroundImageFix" result="shape"/>
<feGaussianBlur stdDeviation="50" result="effect1_foregroundBlur_57_137"/>
</filter>
<filter id="filter10_f_57_137" x="1197.8" y="128.887" width="550.225" height="402.941" filterUnits="userSpaceOnUse" color-interpolation-filters="sRGB">
<feFlood flood-opacity="0" result="BackgroundImageFix"/>
<feBlend mode="normal" in="SourceGraphic" in2="BackgroundImageFix" result="shape"/>
<feGaussianBlur stdDeviation="42.9733" result="effect1_foregroundBlur_57_137"/>
</filter>
<filter id="filter11_f_57_137" x="1197.37" y="1337.8" width="550.225" height="402.944" filterUnits="userSpaceOnUse" color-interpolation-filters="sRGB">
<feFlood flood-opacity="0" result="BackgroundImageFix"/>
<feBlend mode="normal" in="SourceGraphic" in2="BackgroundImageFix" result="shape"/>
<feGaussianBlur stdDeviation="42.9733" result="effect1_foregroundBlur_57_137"/>
</filter>
<filter id="filter12_f_57_137" x="170.799" y="673.887" width="550.226" height="402.942" filterUnits="userSpaceOnUse" color-interpolation-filters="sRGB">
<feFlood flood-opacity="0" result="BackgroundImageFix"/>
<feBlend mode="normal" in="SourceGraphic" in2="BackgroundImageFix" result="shape"/>
<feGaussianBlur stdDeviation="42.9733" result="effect1_foregroundBlur_57_137"/>
</filter>
<filter id="filter13_f_57_137" x="675.8" y="210.887" width="550.222" height="402.941" filterUnits="userSpaceOnUse" color-interpolation-filters="sRGB">
<feFlood flood-opacity="0" result="BackgroundImageFix"/>
<feBlend mode="normal" in="SourceGraphic" in2="BackgroundImageFix" result="shape"/>
<feGaussianBlur stdDeviation="42.9733" result="effect1_foregroundBlur_57_137"/>
</filter>
<clipPath id="clip0_57_137">
<rect width="2002" height="2183" fill="white"/>
</clipPath>
</defs>
</svg>
