<svg width="17" height="19" viewBox="0 0 17 19" fill="none" xmlns="http://www.w3.org/2000/svg">
<path d="M10.8777 4.57031C10.7353 4.57031 10.6595 4.49908 10.6503 4.35662C10.5997 3.98897 10.5492 3.70404 10.4986 3.50184C10.4481 3.29504 10.3699 3.14108 10.2642 3.03998C10.1585 2.93428 9.99539 2.85156 9.77481 2.79182C9.55881 2.73208 9.2578 2.66544 8.87177 2.59191C8.7339 2.56434 8.66497 2.48162 8.66497 2.34375C8.66497 2.20588 8.7339 2.12776 8.87177 2.10937C9.2578 2.05882 9.55881 2.00827 9.77481 1.95772C9.9908 1.90717 10.1516 1.82904 10.2573 1.72334C10.3676 1.61305 10.4481 1.4522 10.4986 1.24081C10.5492 1.02481 10.5997 0.728399 10.6503 0.351561C10.6595 0.204502 10.7353 0.130973 10.8777 0.130973C11.0248 0.130973 11.1052 0.2068 11.119 0.358454C11.165 0.721506 11.2132 1.00643 11.2638 1.21323C11.3143 1.41544 11.3925 1.56709 11.4982 1.6682C11.6084 1.7693 11.7739 1.84972 11.9945 1.90947C12.2151 1.96921 12.5161 2.03584 12.8975 2.10937C13.04 2.13235 13.1112 2.21048 13.1112 2.34375C13.1112 2.48621 13.0308 2.56893 12.8699 2.59191C12.4931 2.64706 12.1967 2.7045 11.9807 2.76424C11.7693 2.81939 11.6084 2.89981 11.4982 3.00551C11.3879 3.11121 11.3074 3.26976 11.2569 3.48116C11.2109 3.68796 11.165 3.97518 11.119 4.34283C11.1052 4.49448 11.0248 4.57031 10.8777 4.57031ZM6.14199 2.84697C6.04549 2.84697 5.99034 2.79871 5.97655 2.7022C5.93519 2.46783 5.89843 2.2886 5.86626 2.16452C5.83409 2.03584 5.78583 1.93934 5.7215 1.875C5.65716 1.80606 5.55835 1.75322 5.42508 1.71645C5.29181 1.67969 5.10569 1.63833 4.86672 1.59237C4.76561 1.56939 4.71506 1.51424 4.71506 1.42693C4.71506 1.33042 4.76791 1.27298 4.87361 1.25459C5.10799 1.21323 5.28951 1.17647 5.41819 1.1443C5.55146 1.10754 5.65027 1.05698 5.7146 0.992646C5.77894 0.923712 5.8272 0.824907 5.85936 0.69623C5.89613 0.562958 5.93519 0.381432 5.97655 0.151653C5.99034 0.05055 6.04549 -1.45938e-06 6.14199 -1.45938e-06C6.2339 -1.45938e-06 6.29135 0.05055 6.31433 0.151653C6.35569 0.381432 6.39015 0.56066 6.41773 0.689337C6.4499 0.813418 6.49815 0.907627 6.56249 0.971965C6.63142 1.0363 6.73023 1.08915 6.8589 1.13051C6.99218 1.16728 7.1783 1.20864 7.41727 1.25459C7.51837 1.27757 7.56892 1.33502 7.56892 1.42693C7.56892 1.51424 7.51607 1.56939 7.41038 1.59237C7.09788 1.64752 6.87269 1.70037 6.73482 1.75092C6.59696 1.80147 6.50504 1.89568 6.45909 2.03355C6.41313 2.16682 6.36488 2.38741 6.31433 2.69531C6.29595 2.79641 6.2385 2.84697 6.14199 2.84697ZM1.94392 18.102C1.82903 18.102 1.7578 18.04 1.73023 17.9159C1.67968 17.5988 1.63142 17.3506 1.58547 17.1714C1.54411 16.9968 1.47747 16.8635 1.38556 16.7716C1.29365 16.6797 1.15578 16.6062 0.971956 16.551C0.788133 16.5005 0.528482 16.4407 0.193004 16.3718C0.0643275 16.3442 -1.07577e-05 16.2753 -1.07577e-05 16.165C-1.07577e-05 16.0409 0.0643275 15.9697 0.193004 15.9513C0.528482 15.8915 0.788133 15.8364 0.971956 15.7858C1.15578 15.7399 1.29135 15.671 1.37867 15.579C1.47058 15.4871 1.53721 15.3493 1.57857 15.1654C1.62453 14.9862 1.67508 14.7358 1.73023 14.4141C1.7578 14.2854 1.82903 14.221 1.94392 14.221C2.068 14.221 2.13924 14.2854 2.15762 14.4141C2.21276 14.7266 2.26102 14.9724 2.30238 15.1517C2.34833 15.3309 2.41727 15.4642 2.50918 15.5515C2.60109 15.6434 2.73896 15.7146 2.92278 15.7652C3.1112 15.8203 3.37315 15.8824 3.70863 15.9513C3.83271 15.9743 3.89475 16.0455 3.89475 16.165C3.89475 16.2799 3.82811 16.3488 3.69484 16.3718C3.36396 16.4361 3.10431 16.4913 2.91589 16.5372C2.73207 16.5878 2.5942 16.659 2.50229 16.7509C2.41497 16.8428 2.34833 16.9784 2.30238 17.1576C2.25642 17.3415 2.20817 17.5919 2.15762 17.909C2.13924 18.0377 2.068 18.102 1.94392 18.102ZM12.6769 16.0547C11.9462 16.7854 11.1535 17.2702 10.2987 17.5092C9.44852 17.7482 8.58914 17.7367 7.72058 17.4747C6.85661 17.2128 6.03629 16.6958 5.25964 15.9237L1.1374 11.7946C0.829493 11.4913 0.670945 11.1466 0.661754 10.7606C0.657158 10.3699 0.801919 10.0253 1.09604 9.72656C1.17416 9.65763 1.25688 9.60018 1.3442 9.55423C1.43611 9.50368 1.53032 9.4738 1.62683 9.46461L1.29595 9.13373C1.00183 8.83961 0.854769 8.50643 0.854769 8.13419C0.854769 7.76195 1.00183 7.42877 1.29595 7.13465C1.443 6.98759 1.61304 6.89798 1.80606 6.86581C1.64981 6.58088 1.59236 6.28676 1.63372 5.98345C1.67968 5.68015 1.81984 5.40901 2.05422 5.17004C2.30238 4.92647 2.57582 4.78401 2.87453 4.74265C3.17324 4.70129 3.46966 4.76333 3.76378 4.92877C3.78216 4.82766 3.81663 4.73116 3.86718 4.63924C3.91773 4.54274 3.98207 4.45312 4.06019 4.3704C4.37729 4.05331 4.73115 3.89476 5.12177 3.89476C5.5124 3.89016 5.86626 4.04641 6.18335 4.36351L9.54732 7.72748C9.56571 7.74586 9.58639 7.74586 9.60936 7.72748C9.62315 7.71369 9.62545 7.69301 9.61626 7.66544L9.35431 7.03814C9.2578 6.78538 9.23712 6.53952 9.29227 6.30055C9.35201 6.05698 9.4669 5.85018 9.63694 5.68015C9.92646 5.39062 10.2619 5.24816 10.6434 5.25276C11.0248 5.25276 11.358 5.39522 11.6429 5.68015C11.8129 5.85018 11.9554 6.05698 12.0703 6.30055L13.5731 9.47151C14.1797 10.7491 14.4072 11.9416 14.2555 13.0492C14.1038 14.1521 13.5777 15.154 12.6769 16.0547ZM11.6843 15.1241C12.3828 14.421 12.8033 13.6627 12.9458 12.8493C13.0882 12.0358 12.9113 11.0937 12.415 10.023L10.9122 6.7693C10.8571 6.65441 10.7904 6.57858 10.7123 6.54182C10.6342 6.50505 10.5469 6.50505 10.4504 6.54182C10.3676 6.57858 10.3079 6.64062 10.2711 6.72794C10.2344 6.81526 10.239 6.91406 10.2849 7.02436L11.1121 9.18888C11.1811 9.3727 11.1971 9.54044 11.1604 9.69209C11.1236 9.83915 11.0547 9.96553 10.9536 10.0712C10.8295 10.1953 10.6801 10.2619 10.5055 10.2711C10.3309 10.2803 10.1654 10.2068 10.0092 10.0506L5.34925 5.38373C5.27572 5.3148 5.193 5.28033 5.10109 5.28033C5.00918 5.28033 4.92646 5.3148 4.85293 5.38373C4.7794 5.45726 4.74264 5.53998 4.74264 5.63189C4.74723 5.71921 4.78629 5.79963 4.85982 5.87316L8.09971 9.11305C8.21001 9.22794 8.26286 9.36581 8.25826 9.52665C8.25826 9.6829 8.20082 9.81618 8.08593 9.92647C7.98023 10.0368 7.84696 10.0942 7.68611 10.0988C7.52986 10.0988 7.39429 10.0437 7.2794 9.93336L3.44668 6.09375C3.36856 6.02022 3.28354 5.98345 3.19163 5.98345C3.09971 5.97886 3.01929 6.01103 2.95036 6.07996C2.87683 6.15349 2.84006 6.23851 2.84006 6.33502C2.84466 6.42693 2.88372 6.50965 2.95725 6.58318L6.91405 10.54C7.03354 10.6595 7.09098 10.7973 7.08639 10.9536C7.08179 11.1098 7.02205 11.2431 6.90716 11.3534C6.79686 11.4637 6.66359 11.5211 6.50734 11.5257C6.35109 11.5303 6.21552 11.4752 6.10063 11.3603L2.73666 7.99632C2.66313 7.92279 2.58041 7.88603 2.4885 7.88603C2.39659 7.88603 2.31387 7.92279 2.24034 7.99632C2.1714 8.06526 2.13694 8.14568 2.13694 8.23759C2.14153 8.3295 2.1806 8.41222 2.25413 8.48575L5.85936 12.091C5.97425 12.2059 6.0294 12.3437 6.02481 12.5046C6.02021 12.6608 5.96277 12.7941 5.85247 12.9044C5.74218 13.0147 5.6089 13.0721 5.45265 13.0767C5.2964 13.0813 5.16083 13.0262 5.04595 12.9113L2.64705 10.5124C2.57352 10.4389 2.4885 10.4021 2.39199 10.4021C2.30008 10.4021 2.21966 10.4389 2.15072 10.5124C2.0772 10.5813 2.04043 10.6618 2.04043 10.7537C2.04503 10.8456 2.08409 10.926 2.15762 10.9949L6.08685 14.9311C6.69806 15.5377 7.32765 15.949 7.97563 16.165C8.62821 16.381 9.26929 16.3994 9.89889 16.2201C10.5285 16.0455 11.1236 15.6801 11.6843 15.1241ZM6.25229 3.94301C6.57857 3.63511 6.93243 3.47886 7.31387 3.47426C7.6999 3.46507 8.05146 3.62132 8.36856 3.94301L10.3814 5.94899L9.54043 6.96921L7.56203 4.9977C7.47471 4.91038 7.37821 4.86443 7.27251 4.85983C7.1714 4.85524 7.07949 4.892 6.99677 4.97013C6.91405 5.04825 6.87269 5.14246 6.87269 5.25276C6.87729 5.35845 6.92095 5.46645 7.00367 5.57674L5.94898 4.46691C5.97196 4.375 6.00872 4.28538 6.05927 4.19807C6.10982 4.10616 6.17416 4.02114 6.25229 3.94301ZM14.6691 15.7031C13.9982 16.3695 13.2743 16.8221 12.4977 17.0611C11.721 17.3047 10.9467 17.3323 10.1746 17.1438L11.6567 15.8961C12.3736 15.7721 13.0469 15.3929 13.6765 14.7587C14.375 14.0648 14.7932 13.3111 14.9311 12.4977C15.0735 11.6797 14.8989 10.7376 14.4072 9.67141L12.9251 6.4591C12.8516 6.29825 12.7367 6.21783 12.5804 6.21783C12.4747 6.21783 12.3897 6.2523 12.3254 6.32123C12.2656 6.38557 12.2357 6.4591 12.2357 6.54182C12.2357 6.61535 12.2518 6.69347 12.284 6.77619L11.3189 6.36259C11.3143 6.31204 11.312 6.2523 11.312 6.18336C11.312 5.92601 11.3557 5.71461 11.443 5.54917C11.5349 5.37913 11.6498 5.24816 11.7877 5.15625C11.9255 5.05974 12.0657 4.99081 12.2082 4.94945C12.3552 4.90809 12.4793 4.88741 12.5804 4.88741C12.9067 4.88741 13.1962 4.98391 13.449 5.17693C13.7063 5.36535 13.9108 5.6204 14.0625 5.94209L15.5652 9.11994C16.1719 10.3975 16.3993 11.5878 16.2477 12.6907C16.096 13.7937 15.5698 14.7978 14.6691 15.7031Z" fill="#FC7D1E"/>
</svg>
