<svg width="17" height="19" viewBox="0 0 17 19" fill="none" xmlns="http://www.w3.org/2000/svg">
<path d="M1.98215 8.83929H0.750009C0.544651 8.83929 0.368312 8.76563 0.220991 8.61831C0.0736693 8.46652 8.62312e-06 8.29018 8.62312e-06 8.08929C8.62312e-06 7.88393 0.0736693 7.70759 0.220991 7.56027C0.368312 7.40848 0.544651 7.33259 0.750009 7.33259H1.98215C2.19197 7.33259 2.37054 7.40848 2.51787 7.56027C2.66965 7.70759 2.74554 7.88393 2.74554 8.08929C2.74554 8.29464 2.66965 8.47098 2.51787 8.61831C2.37054 8.76563 2.19197 8.83929 1.98215 8.83929ZM3.2076 4.27232L2.33706 3.39509C2.18974 3.25223 2.11608 3.07813 2.11608 2.87277C2.11608 2.66295 2.18974 2.48438 2.33706 2.33706C2.48438 2.1942 2.66072 2.12277 2.86608 2.12277C3.0759 2.12277 3.25224 2.1942 3.3951 2.33706L4.27233 3.21429C4.41519 3.36161 4.48662 3.54018 4.48662 3.75C4.49108 3.95536 4.41965 4.12947 4.27233 4.27232C4.12501 4.41964 3.94644 4.49331 3.73662 4.49331C3.53126 4.49331 3.35492 4.41964 3.2076 4.27232ZM7.3326 1.99554V0.756698C7.3326 0.551341 7.40626 0.375002 7.55358 0.227681C7.70537 0.0758949 7.8817 2.05263e-06 8.0826 2.05263e-06C8.28349 2.05263e-06 8.4576 0.0758949 8.60492 0.227681C8.7567 0.375002 8.8326 0.551341 8.8326 0.756698V1.99554C8.8326 2.19643 8.75894 2.37277 8.61162 2.52456C8.46429 2.67188 8.28795 2.74554 8.0826 2.74554C7.87724 2.74554 7.7009 2.67188 7.55358 2.52456C7.40626 2.37277 7.3326 2.19643 7.3326 1.99554ZM11.8929 3.21429L12.7701 2.33706C12.9174 2.1942 13.0938 2.12277 13.2991 2.12277C13.5045 2.12277 13.683 2.1942 13.8348 2.33706C13.9777 2.48438 14.0491 2.66295 14.0491 2.87277C14.0491 3.07813 13.9777 3.25223 13.8348 3.39509L12.9509 4.27232C12.808 4.41964 12.6339 4.49554 12.4286 4.5C12.2232 4.5 12.0447 4.42411 11.8929 4.27232C11.7455 4.12947 11.6719 3.95536 11.6719 3.75C11.6763 3.54018 11.75 3.36161 11.8929 3.21429ZM15.4152 8.83929H14.1763C13.9755 8.83929 13.7991 8.76563 13.6473 8.61831C13.4955 8.47098 13.4197 8.29464 13.4197 8.08929C13.4197 7.88393 13.4955 7.70759 13.6473 7.56027C13.7991 7.40848 13.9755 7.33259 14.1763 7.33259H15.4152C15.6161 7.33259 15.7902 7.40848 15.9375 7.56027C16.0893 7.70759 16.1652 7.88393 16.1652 8.08929C16.1652 8.29018 16.0893 8.46652 15.9375 8.61831C15.7902 8.76563 15.6161 8.83929 15.4152 8.83929ZM8.0826 3.74331C8.65403 3.74331 9.18751 3.84152 9.68304 4.03795C10.183 4.22991 10.6205 4.5 10.9955 4.84822C11.375 5.19197 11.6719 5.59598 11.8862 6.06027C12.1005 6.52456 12.2076 7.02902 12.2076 7.57366C12.2076 8.01563 12.163 8.41295 12.0737 8.76563C11.9844 9.11831 11.8705 9.46652 11.7322 9.81027C11.5938 10.1496 11.4487 10.5179 11.2969 10.9152C11.1451 11.3125 11.0045 11.7768 10.875 12.308C10.75 12.8393 10.654 13.4732 10.5871 14.2098C10.5692 14.4063 10.5022 14.5603 10.3862 14.6719C10.2701 14.779 10.1161 14.8326 9.92412 14.8326H6.24108C6.04912 14.8326 5.8951 14.779 5.77903 14.6719C5.66295 14.5603 5.59822 14.4063 5.58483 14.2098C5.51787 13.4732 5.41965 12.8393 5.29019 12.308C5.16519 11.7768 5.02679 11.3125 4.87501 10.9152C4.72322 10.5179 4.5759 10.1496 4.43304 9.81027C4.29465 9.46652 4.18081 9.11831 4.09153 8.76563C4.0067 8.41295 3.96429 8.01339 3.96429 7.56697C3.96429 7.02679 4.0692 6.52456 4.27903 6.06027C4.49331 5.59152 4.78795 5.18527 5.16295 4.84152C5.54242 4.49777 5.98215 4.22991 6.48215 4.03795C6.98215 3.84152 7.51563 3.74331 8.0826 3.74331ZM8.0826 5.04911C7.57367 5.04911 7.10492 5.15625 6.67635 5.37054C6.24778 5.58036 5.90403 5.875 5.6451 6.25447C5.38617 6.63393 5.2567 7.07143 5.2567 7.56697C5.2567 7.86607 5.29242 8.13616 5.36385 8.37723C5.43974 8.61831 5.53572 8.87277 5.65179 9.14063C5.76787 9.40848 5.89287 9.72991 6.02679 10.1049C6.16519 10.4754 6.29912 10.9375 6.42858 11.4911C6.55804 12.0402 6.67188 12.7232 6.7701 13.5402H9.3951C9.49778 12.7232 9.61385 12.0402 9.74331 11.4911C9.87278 10.9375 10.0045 10.4754 10.1384 10.1049C10.2768 9.72991 10.404 9.40848 10.5201 9.14063C10.6406 8.87277 10.7366 8.61831 10.808 8.37723C10.8795 8.13616 10.9152 7.86607 10.9152 7.56697C10.9152 7.07143 10.7857 6.63393 10.5268 6.25447C10.2679 5.875 9.92412 5.58036 9.49554 5.37054C9.06697 5.15625 8.59599 5.04911 8.0826 5.04911ZM6.16742 16.3259C6.03795 16.3259 5.92858 16.2813 5.83929 16.192C5.75447 16.1071 5.71206 16.0022 5.71206 15.8772C5.71206 15.7567 5.75447 15.6518 5.83929 15.5625C5.92858 15.4732 6.03795 15.4286 6.16742 15.4286H9.99778C10.1272 15.4286 10.2344 15.4732 10.3192 15.5625C10.4085 15.6518 10.4531 15.7567 10.4531 15.8772C10.4531 16.0022 10.4085 16.1071 10.3192 16.192C10.2344 16.2813 10.1272 16.3259 9.99778 16.3259H6.16742ZM8.0826 18.1406C7.59153 18.1406 7.17188 18.029 6.82367 17.8058C6.47992 17.5871 6.29912 17.2946 6.28126 16.9286H9.87724C9.85492 17.2946 9.67412 17.5871 9.33483 17.8058C8.99554 18.029 8.57813 18.1406 8.0826 18.1406Z" fill="#FC7D1E"/>
</svg>
