<svg width="16" height="17" viewBox="0 0 16 17" fill="none" xmlns="http://www.w3.org/2000/svg">
<path d="M2.29867 16.1178C0.766217 16.1178 -9.40729e-06 15.5829 -9.40729e-06 14.5132C-9.40729e-06 13.9002 0.180279 13.2752 0.540856 12.6382C0.901433 11.9952 1.41526 11.4032 2.08232 10.8624C2.7554 10.3155 3.55468 9.8768 4.48016 9.54627C5.41165 9.20973 6.43929 9.04147 7.56309 9.04147C8.6929 9.04147 9.72054 9.20973 10.646 9.54627C11.5715 9.8768 12.3678 10.3155 13.0348 10.8624C13.7079 11.4032 14.2248 11.9952 14.5853 12.6382C14.9459 13.2752 15.1262 13.9002 15.1262 14.5132C15.1262 15.5829 14.36 16.1178 12.8275 16.1178H2.29867ZM2.1905 14.387H12.9357C13.0258 14.387 13.0859 14.369 13.116 14.3329C13.152 14.3029 13.1701 14.2548 13.1701 14.1887C13.1701 13.8882 13.0439 13.5457 12.7915 13.1611C12.5451 12.7764 12.1815 12.4038 11.7007 12.0433C11.226 11.6767 10.64 11.3732 9.9429 11.1328C9.24578 10.8924 8.45251 10.7722 7.56309 10.7722C6.66766 10.7722 5.87138 10.8924 5.17427 11.1328C4.48316 11.3732 3.89723 11.6767 3.41646 12.0433C2.93569 12.4038 2.57211 12.7764 2.32571 13.1611C2.07932 13.5457 1.95612 13.8882 1.95612 14.1887C1.95612 14.2548 1.97415 14.3029 2.01021 14.3329C2.04626 14.369 2.10636 14.387 2.1905 14.387ZM7.56309 8.13101C6.86598 8.13101 6.22896 7.94772 5.65203 7.58113C5.08112 7.21454 4.62439 6.72175 4.28184 6.10276C3.9453 5.48377 3.77703 4.79567 3.77703 4.03846C3.77703 3.29928 3.9453 2.6232 4.28184 2.01022C4.62439 1.39723 5.08413 0.910456 5.66105 0.549879C6.23797 0.183292 6.87199 -1.06078e-06 7.56309 -1.06078e-06C8.26021 -1.06078e-06 8.89723 0.180287 9.47415 0.540864C10.0511 0.901441 10.5078 1.38822 10.8443 2.0012C11.1869 2.60817 11.3582 3.28425 11.3582 4.02945C11.3582 4.78065 11.1869 5.46875 10.8443 6.09375C10.5078 6.71875 10.0511 7.21454 9.47415 7.58113C8.90324 7.94772 8.26622 8.13101 7.56309 8.13101ZM7.56309 6.40925C7.92968 6.40925 8.26622 6.30709 8.57271 6.10276C8.8792 5.89243 9.12259 5.60997 9.30288 5.25541C9.48917 4.89483 9.58232 4.48618 9.58232 4.02945C9.58232 3.58473 9.48917 3.1911 9.30288 2.84856C9.12259 2.5 8.8792 2.22656 8.57271 2.02824C8.27223 1.82993 7.93569 1.73077 7.56309 1.73077C7.20251 1.73077 6.86898 1.82993 6.56249 2.02824C6.256 2.22656 6.00961 2.5 5.82331 2.84856C5.64302 3.19711 5.55288 3.59074 5.55288 4.02945C5.55288 4.49219 5.64302 4.90385 5.82331 5.26442C6.00961 5.61899 6.256 5.89844 6.56249 6.10276C6.86898 6.30709 7.20251 6.40925 7.56309 6.40925Z" fill="#F87F22"/>
</svg>
