<svg width="1489" height="645" viewBox="0 0 1489 645" fill="none" xmlns="http://www.w3.org/2000/svg">
<g clip-path="url(#clip0_219_18)">
<path d="M1453.34 48.9784C1483.94 78.4984 1483.59 132.128 1472.96 170.408C1458.23 223.458 1414.53 272.648 1373.74 308.138C1361.84 318.488 1348.73 326.698 1336.73 337.108C1318.88 352.598 1272.32 395.248 1272.7 419.118C1272.97 436.048 1290.16 445.978 1305.38 447.498C1334.09 450.368 1378.68 437.108 1405.21 425.618C1420.48 419.008 1442.67 403.878 1459.22 405.118C1468.93 405.848 1473.84 414.518 1477.39 422.408C1498.88 470.228 1490.89 556.628 1448.17 591.598C1409.53 623.228 1308.75 637.438 1259.33 639.658C1191.36 642.708 1083.51 635.428 1034.39 581.628C936.017 473.908 1105.53 353.868 1170.35 281.628C1187.92 262.048 1224.18 220.358 1221.85 193.068C1218.34 151.938 1145.93 173.028 1122.62 181.868C1104.89 188.588 1088.97 198.798 1071.91 206.618C1063.63 174.248 1052.87 142.448 1037.09 112.938C1033.67 106.548 1025.2 97.2384 1025.98 90.2184C1027.53 76.3184 1039.74 56.5384 1050.43 47.6384C1077.22 25.3484 1142.77 13.7184 1177.42 8.69841C1253.29 -2.29159 1394.01 -8.2716 1453.35 48.9684H1453.34V48.9784ZM1366.73 490.628C1366.68 497.278 1366.77 503.978 1366.73 510.638C1367.7 511.608 1389.72 509.318 1393.73 511.138C1394.37 511.428 1394.43 512.298 1394.72 512.628L1394.7 566.148C1394.81 567.878 1395.34 570.088 1396.73 571.148C1397.23 571.528 1397.66 570.618 1397.72 570.628C1400.96 571.518 1416.71 573.248 1416.71 569.128V516.128C1416.71 515.868 1418.3 512.468 1418.66 512.078C1422.06 508.238 1441 512.608 1446.68 510.108C1451.75 507.868 1450.32 490.508 1446.99 489.618C1441 488.018 1423.94 491.738 1419.3 488.548C1413.25 484.388 1419.91 463.388 1415.25 458.598C1413.57 456.868 1402.12 457.608 1398.73 457.628C1398.67 457.628 1398.39 456.558 1397.75 457.038C1397.35 457.338 1394.73 461.828 1394.73 462.128V486.128C1394.73 491.428 1369.03 486.438 1366.19 489.628C1365.47 490.438 1366.75 490.518 1366.75 490.628H1366.73Z" fill="white"/>
<path d="M207.106 1.9209C282.266 -0.339099 423.346 2.1209 474.596 65.7109C499.326 96.4009 505.926 146.151 463.876 164.811C432.986 178.521 386.366 176.861 354.986 165.381C305.356 147.231 264.396 79.3009 206.086 92.9009C157.176 104.311 181.086 158.661 203.286 184.151C244.786 231.801 293.956 229.911 352.726 226.611C379.356 225.121 415.596 215.741 437.216 236.101C456.346 254.121 457.006 300.691 428.376 310.301C406.776 317.551 371.486 305.941 347.776 304.581C274.636 300.381 295.616 372.971 314.536 415.831C335.266 462.791 402.166 550.711 350.706 595.601C296.936 642.501 166.786 651.521 99.6259 638.851C39.1959 627.451 -4.77411 605.811 0.415886 536.131C2.83589 503.601 23.7659 469.981 36.3859 440.121C77.5659 342.681 71.4359 271.941 36.1559 174.351C20.3859 130.731 -11.4741 74.5509 37.8859 38.6109C79.1259 8.5809 157.226 3.4109 207.096 1.9109L207.106 1.9209Z" fill="white"/>
<path d="M729.837 1.92123C768.207 -0.438763 821.207 -0.708763 859.527 1.58123C976.017 8.53123 1044.01 114.431 1064.63 219.381C1072.71 260.491 1077.21 324.101 1069.77 365.011C1067.97 374.901 1059.41 380.331 1053.38 387.611C1015.42 433.421 984.967 474.721 998.197 537.851C1000.68 549.711 1004.57 546.481 995.907 558.101C975.397 585.621 942.057 611.301 910.487 624.641C861.297 645.421 803.287 642.481 750.507 640.581C720.647 639.511 693.877 638.461 666.087 625.121C594.617 590.831 631.587 536.191 645.637 479.661C672.557 371.361 669.897 264.871 645.847 156.371C644.927 152.241 642.167 147.321 642.067 143.081C641.747 129.481 651.317 102.911 654.607 88.6312C659.587 66.9812 661.087 46.9712 647.337 28.1112C647.497 25.9712 657.107 20.6912 659.427 19.4612C679.187 8.98123 707.547 3.28123 729.847 1.91123L729.837 1.92123ZM857.787 146.911C842.507 147.951 834.517 160.931 832.987 175.121C829.417 208.271 836.057 249.331 837.037 283.091C838.287 326.321 834.497 366.611 832.957 409.091C832.547 420.331 831.227 466.541 833.947 474.181C843.337 500.601 876.787 495.451 893.507 479.671C940.007 435.761 943.547 323.301 935.817 264.251C930.827 226.091 907.587 143.521 857.787 146.911Z" fill="white"/>
<path d="M528.946 1.91955C564.006 -1.90045 643.256 8.81955 648.096 54.1195C650.526 76.8295 639.176 105.87 634.976 129.01C620.066 211.17 625.336 307.34 635.076 390.15C636.736 404.24 639.196 418.2 640.976 432.25C643.536 452.48 636.966 474.04 631.626 493.66C624.966 518.1 609.046 552.199 613.386 576.859C616.496 594.539 625.367 606.99 638.087 619.13C617.327 634.46 587.306 642.129 561.686 643.669C522.296 646.029 446.216 629.69 433.896 585.44C426.336 558.32 440.686 529.63 447.726 503.64C471.346 416.4 479.296 325.18 468.076 235.25C465.686 216.12 461.836 197.25 458.286 178.25C468.396 172.89 478.906 169.46 487.186 161.12C520.886 127.2 499.806 73.8895 469.216 46.1095C466.616 43.7495 452.156 33.7995 452.156 32.1395C452.146 29.6095 458.556 25.9995 460.696 24.6095C479.286 12.5995 507.146 4.28955 528.966 1.91955H528.946Z" fill="white"/>
<path d="M1397.72 570.629C1397.67 570.619 1397.23 571.529 1396.73 571.149C1395.34 570.079 1394.81 567.879 1394.7 566.149L1394.72 512.629C1396.27 514.369 1396.48 514.629 1396.75 517.099C1398.57 534.059 1394.52 553.649 1397.72 570.629Z" fill="white"/>
<path d="M1398.72 457.632C1393.69 463.782 1400 484.662 1394.3 488.702C1389.89 491.832 1372.66 487.542 1366.74 490.632C1366.74 490.532 1365.46 490.452 1366.18 489.632C1369.03 486.432 1394.72 491.432 1394.72 486.132V462.132C1394.72 461.832 1397.34 457.352 1397.74 457.042C1398.38 456.562 1398.66 457.632 1398.72 457.632Z" fill="white"/>
</g>
<defs>
<clipPath id="clip0_219_18">
<rect width="1489" height="645" fill="white"/>
</clipPath>
</defs>
</svg>
